<?xml version="1.0" encoding="UTF-8" standalone="no"?>
<svg
   width="353"
   height="353"
   version="1.1"
   id="svg2"
   sodipodi:docname="logo.svg"
   inkscape:version="1.4.3 (0d15f75042, 2025-12-25)"
   xmlns:inkscape="http://www.inkscape.org/namespaces/inkscape"
   xmlns:x="adobe:ns:meta/"
   xmlns:sodipodi="http://sodipodi.sourceforge.net/DTD/sodipodi-0.dtd"
   xmlns="http://www.w3.org/2000/svg"
   xmlns:svg="http://www.w3.org/2000/svg"
   xmlns:rdf="http://www.w3.org/1999/02/22-rdf-syntax-ns#">
  <sodipodi:namedview
     id="namedview2"
     pagecolor="#ffffff"
     bordercolor="#000000"
     borderopacity="0.25"
     inkscape:showpageshadow="2"
     inkscape:pageopacity="0.0"
     inkscape:pagecheckerboard="0"
     inkscape:deskcolor="#d1d1d1"
     inkscape:zoom="2.0552995"
     inkscape:cx="155.45179"
     inkscape:cy="178.07623"
     inkscape:window-width="2048"
     inkscape:window-height="1096"
     inkscape:window-x="0"
     inkscape:window-y="0"
     inkscape:window-maximized="1"
     inkscape:current-layer="svg2" />
  <metadata
     id="metadata1">
<?xpacket begin="﻿" id="W5M0MpCehiHzreSzNTczkc9d"?>    <x:xmpmeta
       x:xmptk="Adobe XMP Core 5.6-c142 79.160924, 2017/07/13-01:06:39        ">
      <rdf:RDF>
        <rdf:Description
           rdf:about="" />
      </rdf:RDF>
    </x:xmpmeta>
<?xpacket end="w"?>  </metadata>
  <defs
     id="defs2">
    <linearGradient
       id="grad1"
       x1="4.3391218"
       y1="7.0415435"
       x2="269.69495"
       y2="7.0415435"
       gradientTransform="matrix(1.2887476,0,0,0.77594712,-0.08038104,68.085088)"
       gradientUnits="userSpaceOnUse">
      <stop
         offset="0%"
         style="stop-color:rgb(235,50,37);stop-opacity:1"
         id="stop1" />
      <stop
         offset="100%"
         style="stop-color:rgb(237,130,58);stop-opacity:1"
         id="stop2" />
    </linearGradient>
  </defs>
  <path
     fill="url(#grad1)"
     id="C3"
     class="cls-1"
     d="m 186.57362,247.15309 -32.844,-30.912 a 47.635,47.635 0 0 1 -16.836,14.352 q -10.492,5.524 -24.564,5.52 a 55.69,55.69 0 0 1 -22.356001,-4.416 51.5,51.5 0 0 1 -17.526,-12.282 56.524,56.524 0 0 1 -11.454,-18.906 68.659,68.659 0 0 1 -4.14,-24.288 66.746,66.746 0 0 1 4.14,-23.874 57.254,57.254 0 0 1 11.592,-18.906 53.435,53.435 0 0 1 17.802,-12.556 55.92,55.92 0 0 1 22.770001,-4.554 57.731,57.731 0 0 1 22.08,4.416 39.637,39.637 0 0 1 17.388,13.524 l 32.016,-32.016 q -12.42,-14.076002 -32.43,-21.390002 a 120.7,120.7 0 0 0 -82.386001,-0.138 99.654,99.654 0 0 0 -33.672,20.558002 94.521,94.521 0 0 0 -22.494,32.432 q -8.14,19.044 -8.14,42.504 a 107.154,107.154 0 0 0 8,41.952 96.536,96.536 0 0 0 55.338,53.82 114.489,114.489 0 0 0 41.814001,7.452 q 24.84,0 43.884,-8.694 a 93.037,93.037 0 0 0 32.016,-23.6 v 0 z m 158.146,-45.294 a 45.488,45.488 0 0 0 -7.728,-13.231 49.13,49.13 0 0 0 -11.868,-10.2 50.315,50.315 0 0 0 -15.18,-6.2 v -0.828 a 45.072,45.072 0 0 0 23.6,-15.063 q 9.243,-11.191 9.246,-27.505 0,-14.1 -5.934,-24.46 a 54,54 0 0 0 -15.594,-17.276002 67.767,67.767 0 0 0 -21.942,-10.231 96.594,96.594 0 0 0 -25.254,-3.316 89.575,89.575 0 0 0 -23.736,3.174 78.356,78.356 0 0 0 -21.39,9.384 66.172,66.172 0 0 0 -16.974,15.456002 63.721,63.721 0 0 0 -10.764,21.666 l 43.056,9.936 a 27.386,27.386 0 0 1 9.522,-15.87 26.545,26.545 0 0 1 17.25,-5.934 27.9,27.9 0 0 1 17.112,5.554 q 7.452,5.557 7.452,16.107 0,7.219 -2.9,11.665 a 21.192,21.192 0 0 1 -7.728,7.081 33.656,33.656 0 0 1 -10.9,3.61 80.411,80.411 0 0 1 -12.7,0.97 h -13.52 v 33.672 h 12.42 a 84.053,84.053 0 0 1 14.352,1.242 44.769,44.769 0 0 1 12.834,4.14 24.478,24.478 0 0 1 9.108,7.866 21.276,21.276 0 0 1 3.45,12.42 23.5,23.5 0 0 1 -2.622,11.592 23.169,23.169 0 0 1 -6.624,7.59 27.706,27.706 0 0 1 -9.108,4.278 38.385,38.385 0 0 1 -10.074,1.38 q -13.248,0 -21.8,-7.314 a 34.653,34.653 0 0 1 -11.316,-16.974 l -43.056,11.316 a 65.17,65.17 0 0 0 29.67,39.606 81.443,81.443 0 0 0 22.908,9.246 109.52,109.52 0 0 0 25.806,3.036 97.143,97.143 0 0 0 26.634,-3.722 74.773,74.773 0 0 0 23.6,-11.3 58.328,58.328 0 0 0 16.974,-19.294 q 6.481,-11.707 6.486,-27.7 a 43.749,43.749 0 0 0 -2.768,-15.569 z"
     style="fill:url(#grad1)" />
</svg>
